<?xml version="1.0" encoding="UTF-8"?>
<svg width="39px" height="44px" viewBox="0 0 39 44" version="1.1" xmlns="http://www.w3.org/2000/svg" xmlns:xlink="http://www.w3.org/1999/xlink">
    <!-- Generator: Sketch 54.1 (76490) - https://sketchapp.com -->
    <title>Group 4</title>

    <g id="Page-1" stroke="none" stroke-width="1" fill="none" fill-rule="evenodd">
        <g id="Technologies-Copy" transform="translate(-1072.000000, -2374.000000)" stroke="#00C088" stroke-width="3">
            <g id="Group-4" transform="translate(1072.000000, 2376.000000)">
                <path d="M13.5,36.5 L25.5,36.5" id="Line-5-Copy-2" stroke-linecap="square"></path>
                <path d="M19.5,25 L19.5,34.5" id="Line-6-Copy-3" stroke-linecap="square"></path>
                <g id="mobileme-logo-of-black-cloud-(1)-copy" transform="translate(2.000000, 0.000000)" fill-rule="nonzero">
                    <path d="M35,16.288261 C35,19.9950193 31.9231163,23 28.1290905,23 L6.86968895,23 C3.07574451,23 0,19.9950193 0,16.288261 C0,12.9404783 2.5084105,10.1671355 5.79019197,9.65967811 C5.74861026,9.42472661 5.72566302,9.18299008 5.72566302,8.93415293 C5.72566302,6.58550582 7.67471409,4.68183066 10.0796179,4.68183066 C11.1521167,4.68183066 12.1349424,5.06068797 12.8931779,5.69106489 C14.2449496,2.71551227 15.9778735,0 20.8394344,0 C26.7354115,0 29.5298489,4.44206652 29.5298489,9.12941988 C29.5298489,9.32547578 29.521386,9.51971707 29.5077967,9.71190708 C32.6416417,10.3357357 35,13.0428061 35,16.288261 Z" id="MobileMe"></path>
                </g>
                <rect id="Rectangle-Copy-2" x="1.5" y="32.5" width="10" height="8"></rect>
                <rect id="Rectangle-Copy-4" x="27.5" y="32.5" width="10" height="8"></rect>
            </g>
        </g>
    </g>
</svg>