<?xml version="1.0" encoding="UTF-8"?>
<svg width="49px" height="49px" viewBox="0 0 49 49" version="1.1" xmlns="http://www.w3.org/2000/svg" xmlns:xlink="http://www.w3.org/1999/xlink">
    <!-- Generator: Sketch 54.1 (76490) - https://sketchapp.com -->
    <title>Group 30</title>

    <g id="Page-1" stroke="none" stroke-width="1" fill="none" fill-rule="evenodd">
        <g id="Technologies-Copy" transform="translate(-1072.000000, -2096.000000)" fill-rule="nonzero">
            <g id="Group-30" transform="translate(1074.000000, 2098.000000)">
                <path d="M44,22 C44,9.86896582 34.1310342,0 22,0 C9.86896582,0 0,9.86896582 0,22 C0,25.9535645 1.05234969,29.8029492 3.05067136,33.1824249 L0.0808823529,43.9186781 L10.8175751,40.9493286 C14.1970508,42.9476503 18.0464355,44 22,44 C34.1310342,44 44,34.1310342 44,22 Z" id="Shape" stroke="#00C088" stroke-width="3" transform="translate(22.000000, 22.000000) scale(-1, 1) translate(-22.000000, -22.000000) "></path>
                <path d="M20.7494145,26 C20.1592506,25.3678647 19.8220141,24.5433404 19.8220141,23.5813953 C19.8220141,20.3107822 23.9250585,19.9260042 23.9250585,18.0295983 C23.9250585,17.1775899 23.2786885,16.4630021 21.7330211,16.4630021 C20.3278689,16.4630021 19.147541,17.1501057 18.2763466,18.167019 L16,15.6659619 C17.4894614,13.961945 19.7377049,13 22.1545667,13 C25.7798595,13 28,14.7864693 28,17.3424947 C28,21.3551797 23.3067916,21.6575053 23.3067916,23.9661734 C23.3067916,24.4059197 23.5316159,24.8731501 23.8126464,25.1205074 L20.7494145,26 Z M22.5,32 C21.1419753,32 20,31.0864198 20,30 C20,28.9135802 21.1419753,28 22.5,28 C23.8580247,28 25,28.9135802 25,30 C25,31.0864198 23.8580247,32 22.5,32 Z" id="?" fill="#00C088"></path>
            </g>
        </g>
    </g>
</svg>