<?xml version="1.0" encoding="UTF-8"?>
<svg width="49px" height="55px" viewBox="0 0 49 55" version="1.1" xmlns="http://www.w3.org/2000/svg" xmlns:xlink="http://www.w3.org/1999/xlink">
    <!-- Generator: Sketch 54.1 (76490) - https://sketchapp.com -->
    <title>Group 15</title>

    <g id="Page-1" stroke="none" stroke-width="1" fill="none" fill-rule="evenodd">
        <g id="-Mobile-Development" transform="translate(-400.000000, -1716.000000)" stroke="#00C088" stroke-width="3">
            <g id="Group-15" transform="translate(400.000000, 1718.000000)">
                <path d="M28,30.4738915 L28,16 L15,16 L15,13.3051757 L18.2438965,12.6564941 C18.5476074,11.5004882 19.0090332,10.3935547 19.6210937,9.35229494 L17.7807617,6.59179687 L21.5917969,2.78076175 L24.3522949,4.62109375 C25.3935547,4.00903319 26.5004882,3.54760744 27.6564941,3.24414062 L28.3051757,0 L33.6948242,0 L34.3435059,3.2438965 C35.4995117,3.54760744 36.6064453,4.00903319 37.6477051,4.62109375 L40.4082031,2.78076175 L44.2192382,6.59179687 L42.3789062,9.35229494 C42.9909668,10.3935547 43.4523926,11.5004882 43.7558594,12.6564941 L47,13.3051757 L47,18.6948242 L43.7561035,19.3435059 C43.4523926,20.4995117 42.9909668,21.6064453 42.3789062,22.6477051 L44.2192382,25.4082031 L40.4082031,29.2192382 L37.6477051,27.3789062 C36.6064453,27.9909668 35.4995117,28.4523926 34.3435059,28.7558594 L33.6948242,32 L28.3051757,32 L28,30.4738915 Z" id="Combined-Shape" fill-rule="nonzero"></path>
                <g id="Group-13" transform="translate(0.000000, 15.000000)">
                    <g id="Group-14">
                        <rect id="Rectangle" x="1.5" y="1.5" width="26" height="35"></rect>
                    </g>
                </g>
                <path d="M3.5,42.5 L26.5,42.5" id="Line-3" stroke-linecap="square"></path>
            </g>
        </g>
    </g>
</svg>