<svg width="50" height="50" viewBox="0 0 50 50" fill="none" xmlns="http://www.w3.org/2000/svg">
<path d="M41.2108 16.1156H44.1405C44.1405 10.4603 39.5396 5.85938 33.8843 5.85938V8.78906C37.9241 8.78906 41.2108 12.0758 41.2108 16.1156Z" fill="#00C088"/>
<path d="M47.0702 16.1156H49.9999C49.9999 7.22939 42.7705 0 33.8843 0V2.92969C41.1551 2.92969 47.0702 8.84482 47.0702 16.1156Z" fill="#00C088"/>
<path d="M38.2812 16.1156C38.2812 13.6912 36.3089 11.7188 33.8845 11.7188H29.4853V4.94609L29.2548 4.58545C29.1701 4.45303 28.3685 3.25908 26.3095 2.13398C23.7177 0.718066 20.3192 0 16.2086 0C12.0979 0 8.69951 0.718066 6.10781 2.13408C4.04883 3.25908 3.24717 4.45303 3.1625 4.58545L2.93203 4.94609V41.2062H0V50H50V41.2062H38.2812V16.1156ZM33.8845 14.6484C34.6935 14.6484 35.3516 15.3066 35.3516 16.1156V41.2062H29.4852V14.6484H33.8845ZM7.5126 4.70508C8.99482 3.89512 11.7067 2.92969 16.2086 2.92969C22.9868 2.92969 25.7729 5.121 26.5555 5.90938V34.3649H5.86172V5.904C6.13281 5.62949 6.65762 5.17217 7.5126 4.70508ZM5.86172 37.2945H26.5555V41.2062H5.86172V37.2945ZM47.0703 47.0703H2.92969V44.1359H47.0703V47.0703Z" fill="#00C088"/>
</svg>
