<?xml version="1.0" encoding="utf-8"?>
<!-- Generator: Adobe Illustrator 24.0.1, SVG Export Plug-In . SVG Version: 6.00 Build 0)  -->
<svg version="1.1" id="Layer_1" xmlns="http://www.w3.org/2000/svg" xmlns:xlink="http://www.w3.org/1999/xlink" x="0px" y="0px"
	 viewBox="0 0 512 512" style="enable-background:new 0 0 512 512;" xml:space="preserve">
<style type="text/css">
	.st0{fill:#00AEFF;}
</style>
<path class="st0" d="M499.1,269.6L384,225V97c1-3.9-1.1-7.9-4.9-9.3L258.9,41c-1.9-0.7-4-0.7-5.8,0l-120,47.5c-3,1.2-5,4.2-5,7.4h0
	v129L13.1,270.6c-3,1.2-5,4.2-5,7.4h0v136.2h0c0.1,3.2,2.1,6,5,7.2L133,470c1.9,0.8,4.1,0.8,6,0l117-47.4L373,470
	c1.9,0.8,4.1,0.8,6,0l120-48.6c3.3-1.3,5.3-4.7,4.9-8.3h0V279C505,275.1,502.9,271,499.1,269.6L499.1,269.6z M368,225l-104,41.2
	V144.4l104-37.8V225z M256,57l97.5,37.8l-97.3,35.4l-97.5-34.6L256,57z M248,144.3v121L144,225V107.3L248,144.3z M128,450.7
	L24,408.5V289.3l104,37V450.7z M136.2,312.2l-97.5-34.6l95.4-37.8l95.2,38.6L136.2,312.2z M144,326.4l104-37.8v119.9l-104,42.2
	V326.4z M368,450.7l-104-42.2V289.3l104,37V450.7z M376.2,312.2l-94.4-33.5l96-38.9l95.6,37.1L376.2,312.2z M488,408.5l-104,42.2
	V326.4l104-37.8V408.5z"/>
</svg>
